<?xml version="1.0" encoding="UTF-8"?>
<svg xmlns="http://www.w3.org/2000/svg" viewBox="0 0 960 540" font-family="-apple-system, BlinkMacSystemFont, 'Segoe UI', Roboto, Helvetica, Arial, sans-serif">
  <!-- white background so it reads the same in GitHub light/dark mode -->
  <rect width="960" height="540" fill="#ffffff"/>

  <!-- Title -->
  <text x="480" y="30" text-anchor="middle" font-size="16" font-weight="700" fill="#1a1a1a">GPS Module Wiring — XIAO ESP32S3 Plus</text>

  <!-- ============================================================ -->
  <!-- OPTION A: Simple (Recommended)                               -->
  <!-- ============================================================ -->
  <rect x="40" y="50" width="880" height="190" rx="6" fill="#f0faf2" stroke="#27ae60" stroke-width="1.5"/>
  <text x="55" y="72" font-size="13" font-weight="700" fill="#27ae60">Option A — Simple (Recommended)</text>

  <!-- XIAO ESP32S3 Plus -->
  <rect x="60" y="85" width="200" height="140" rx="8" fill="#eafaf1" stroke="#27ae60" stroke-width="2"/>
  <text x="160" y="105" text-anchor="middle" font-size="12" font-weight="700" fill="#27ae60">XIAO ESP32S3 Plus</text>
  <line x1="72" y1="113" x2="248" y2="113" stroke="#27ae60" stroke-width="1"/>

  <g font-size="11" fill="#1a1a1a">
    <text x="255" y="130" text-anchor="end">D6 (TX)</text>
    <text x="255" y="158" text-anchor="end">D7 (RX)</text>
    <text x="255" y="186" text-anchor="end">3V3</text>
    <text x="255" y="214" text-anchor="end">GND</text>
  </g>
  <g fill="#27ae60">
    <circle cx="265" cy="127" r="3.5"/>
    <circle cx="265" cy="155" r="3.5"/>
    <circle cx="265" cy="183" r="3.5"/>
    <circle cx="265" cy="211" r="3.5"/>
  </g>

  <!-- ATGM336H GPS -->
  <rect x="490" y="85" width="200" height="140" rx="8" fill="#eaf2fb" stroke="#2980b9" stroke-width="2"/>
  <text x="590" y="105" text-anchor="middle" font-size="12" font-weight="700" fill="#2980b9">ATGM336H GPS</text>
  <line x1="502" y1="113" x2="678" y2="113" stroke="#2980b9" stroke-width="1"/>

  <g font-size="11" fill="#1a1a1a">
    <text x="500" y="130" text-anchor="start">RX</text>
    <text x="500" y="158" text-anchor="start">TX</text>
    <text x="500" y="186" text-anchor="start">VCC</text>
    <text x="500" y="214" text-anchor="start">GND</text>
  </g>
  <g fill="#2980b9">
    <circle cx="490" cy="127" r="3.5"/>
    <circle cx="490" cy="155" r="3.5"/>
    <circle cx="490" cy="183" r="3.5"/>
    <circle cx="490" cy="211" r="3.5"/>
  </g>

  <!-- Wires -->
  <line x1="265" y1="127" x2="490" y2="127" stroke="#c0392b" stroke-width="2"/>
  <polygon points="480,123.5 490,127 480,130.5" fill="#c0392b"/>
  <text x="377" y="120" text-anchor="middle" font-size="9" fill="#c0392b">TX → RX</text>

  <line x1="265" y1="155" x2="490" y2="155" stroke="#c0392b" stroke-width="2"/>
  <polygon points="275,151.5 265,155 275,158.5" fill="#c0392b"/>
  <text x="377" y="148" text-anchor="middle" font-size="9" fill="#c0392b">RX ← TX</text>

  <line x1="265" y1="183" x2="490" y2="183" stroke="#e67e22" stroke-width="2.5"/>
  <polygon points="480,178.5 490,183 480,187.5" fill="#e67e22"/>
  <text x="377" y="176" text-anchor="middle" font-size="9" fill="#e67e22" font-weight="600">+3.3V</text>

  <line x1="265" y1="211" x2="490" y2="211" stroke="#333" stroke-width="2.5"/>
  <polygon points="480,206.5 490,211 480,215.5" fill="#333"/>
  <text x="377" y="204" text-anchor="middle" font-size="9" fill="#333" font-weight="600">GND</text>

  <!-- Option A note -->
  <text x="750" y="120" font-size="10" fill="#555">Power management is</text>
  <text x="750" y="134" font-size="10" fill="#555">software-only via UART</text>
  <text x="750" y="148" font-size="10" fill="#555"><tspan font-family="ui-monospace, SFMono-Regular, Menlo, monospace">$PMTK161,0</tspan></text>
  <text x="750" y="162" font-size="10" fill="#555">command (~10–50 µA drain)</text>

  <!-- ============================================================ -->
  <!-- OPTION B: Advanced — GPIO Power Control                      -->
  <!-- ============================================================ -->
  <rect x="40" y="260" width="880" height="270" rx="6" fill="#fef9e7" stroke="#f39c12" stroke-width="1.5"/>
  <text x="55" y="282" font-size="13" font-weight="700" fill="#d4a017">Option B — GPIO Power Control (Advanced)</text>

  <!-- XIAO ESP32S3 Plus -->
  <rect x="60" y="295" width="200" height="200" rx="8" fill="#eafaf1" stroke="#27ae60" stroke-width="2"/>
  <text x="160" y="315" text-anchor="middle" font-size="12" font-weight="700" fill="#27ae60">XIAO ESP32S3 Plus</text>
  <line x1="72" y1="323" x2="248" y2="323" stroke="#27ae60" stroke-width="1"/>

  <g font-size="11" fill="#1a1a1a">
    <text x="255" y="340" text-anchor="end">D6 (TX)</text>
    <text x="255" y="368" text-anchor="end">D7 (RX)</text>
    <text x="255" y="396" text-anchor="end">D14 (GPIO41)</text>
    <text x="255" y="420" text-anchor="end">D4  (GPIO5)</text>
    <text x="255" y="444" text-anchor="end">D15 (GPIO42)</text>
    <text x="255" y="468" text-anchor="end">D5  (GPIO6)</text>
    <text x="255" y="492" text-anchor="end">3V3</text>
    <text x="255" y="516" text-anchor="end">GND</text>
  </g>
  <g fill="#27ae60">
    <circle cx="265" cy="337" r="3.5"/>
    <circle cx="265" cy="365" r="3.5"/>
    <circle cx="265" cy="393" r="3.5"/>
    <circle cx="265" cy="417" r="3.5"/>
    <circle cx="265" cy="441" r="3.5"/>
    <circle cx="265" cy="465" r="3.5"/>
    <circle cx="265" cy="489" r="3.5"/>
    <circle cx="265" cy="513" r="3.5"/>
  </g>

  <!-- ATGM336H GPS -->
  <rect x="490" y="295" width="200" height="200" rx="8" fill="#eaf2fb" stroke="#2980b9" stroke-width="2"/>
  <text x="590" y="315" text-anchor="middle" font-size="12" font-weight="700" fill="#2980b9">ATGM336H GPS</text>
  <line x1="502" y1="323" x2="678" y2="323" stroke="#2980b9" stroke-width="1"/>

  <g font-size="11" fill="#1a1a1a">
    <text x="500" y="340" text-anchor="start">RX</text>
    <text x="500" y="368" text-anchor="start">TX</text>
    <text x="500" y="396" text-anchor="start">VCC</text>
    <text x="500" y="420" text-anchor="start">GND</text>
  </g>
  <g fill="#2980b9">
    <circle cx="490" cy="337" r="3.5"/>
    <circle cx="490" cy="365" r="3.5"/>
    <circle cx="490" cy="393" r="3.5"/>
    <circle cx="490" cy="417" r="3.5"/>
  </g>

  <!-- Wires -->
  <line x1="265" y1="337" x2="490" y2="337" stroke="#c0392b" stroke-width="2"/>
  <polygon points="480,333.5 490,337 480,340.5" fill="#c0392b"/>
  <text x="377" y="330" text-anchor="middle" font-size="9" fill="#c0392b">TX → RX</text>

  <line x1="265" y1="365" x2="490" y2="365" stroke="#c0392b" stroke-width="2"/>
  <polygon points="275,361.5 265,365 275,368.5" fill="#c0392b"/>
  <text x="377" y="358" text-anchor="middle" font-size="9" fill="#c0392b">RX ← TX</text>

  <!-- GPIO pins bridged together, feeding VCC -->
  <line x1="265" y1="393" x2="490" y2="393" stroke="#8e44ad" stroke-width="2"/>
  <polygon points="480,388.5 490,393 480,397.5" fill="#8e44ad"/>

  <line x1="265" y1="417" x2="490" y2="417" stroke="#8e44ad" stroke-width="2"/>
  <polygon points="480,412.5 490,417 480,421.5" fill="#8e44ad"/>

  <line x1="265" y1="441" x2="490" y2="441" stroke="#8e44ad" stroke-width="2"/>
  <polygon points="480,436.5 490,441 480,445.5" fill="#8e44ad"/>

  <line x1="265" y1="465" x2="490" y2="465" stroke="#8e44ad" stroke-width="2"/>
  <polygon points="480,460.5 490,465 480,470.5" fill="#8e44ad"/>

  <!-- Junction dot at GPS VCC -->
  <circle cx="490" cy="393" r="5" fill="#2980b9"/>
  <text x="490" y="397" text-anchor="middle" font-size="6" fill="#fff">VCC</text>

  <!-- Power rail label -->
  <text x="377" y="385" text-anchor="middle" font-size="9" fill="#8e44ad" font-weight="600">GPIO Switched VCC (×4 pins)</text>

  <line x1="265" y1="513" x2="490" y2="417" stroke="#333" stroke-width="2.5"/>
  <polygon points="480,412.5 490,417 480,421.5" fill="#333"/>
  <text x="377" y="460" text-anchor="middle" font-size="9" fill="#333" font-weight="600">GND</text>

  <!-- Option B note -->
  <text x="750" y="318" font-size="10" fill="#555">4 GPIO pins bridged as a</text>
  <text x="750" y="332" font-size="10" fill="#555">switchable power rail.</text>
  <text x="750" y="346" font-size="10" fill="#555">HIGH = ON, LOW + hold</text>
  <text x="750" y="360" font-size="10" fill="#555">= OFF during deep sleep.</text>
  <text x="750" y="382" font-size="10" fill="#d4a017" font-weight="600">~0 mA GPS drain in sleep</text>

  <!-- Legend -->
  <g font-size="11" fill="#1a1a1a">
    <rect x="80" y="520" width="14" height="3.5" fill="#c0392b"/>
    <text x="100" y="525">UART data</text>

    <rect x="220" y="520" width="14" height="3.5" fill="#e67e22"/>
    <text x="240" y="525">+3.3V power (Option A)</text>

    <rect x="420" y="520" width="14" height="3.5" fill="#8e44ad"/>
    <text x="440" y="525">GPIO switched VCC (Option B)</text>

    <rect x="670" y="520" width="14" height="3.5" fill="#333"/>
    <text x="690" y="525">Ground</text>
  </g>
</svg>
